<svg viewBox="0 0 30 30" xmlns="http://www.w3.org/2000/svg" xmlns:xlink="http://www.w3.org/1999/xlink" width="30.000000" height="30.000000" fill="none">
	<rect id="hugeicons:blockchain-02" width="30.000000" height="30.000000" x="0.000000" y="0.000000" fill="rgb(255,255,255)" fill-opacity="0" />
	<path id="Vector" d="M16.1575 27.075L20.72 24.8038C22.7413 23.8 23.75 23.2962 23.75 22.5L23.75 12.5C23.75 11.7037 22.74 11.2012 20.7212 10.1962L16.1575 7.92375C15.5875 7.64125 15.305 7.5 15 7.5C14.695 7.5 14.4113 7.64125 13.8425 7.925L9.28 10.1962C7.25875 11.2 6.25 11.7037 6.25 12.5L6.25 22.5C6.25 23.2962 7.25875 23.8 9.28 24.8038L13.8425 27.075C14.4113 27.3588 14.695 27.5 15 27.5C15.305 27.5 15.5887 27.3588 16.1575 27.075ZM15 27.5L15 17.5M23.75 12.5C23.75 13.2963 22.74 13.7988 20.7212 14.8038L16.1575 17.0763C15.5887 17.3587 15.305 17.5 15 17.5C14.695 17.5 14.4113 17.3587 13.8425 17.0763L9.27875 14.8038C7.26 13.7988 6.25 13.2963 6.25 12.5M27.5 26.25L23.75 23.125M15 2.5L15 7.5M2.5 26.25L6.25 23.125" fill-rule="nonzero" stroke="rgb(156.509,255,58.0183)" stroke-linecap="round" stroke-linejoin="round" stroke-width="1.875000" />
</svg>
