<svg viewBox="0 0 30 30" xmlns="http://www.w3.org/2000/svg" xmlns:xlink="http://www.w3.org/1999/xlink" width="30.000000" height="30.000000" fill="none">
	<rect id="hugeicons:flow-connection" width="30.000000" height="30.000000" x="0.000000" y="0.000000" fill="rgb(255,255,255)" fill-opacity="0" />
	<path id="Vector" d="M3.76625 3.14125C4.40625 2.5 5.4375 2.5 7.5 2.5C9.5625 2.5 10.5938 2.5 11.2338 3.14125C11.875 3.78125 11.875 4.8125 11.875 6.875C11.875 8.9375 11.875 9.96875 11.2338 10.6088C10.5938 11.25 9.5625 11.25 7.5 11.25C5.4375 11.25 4.40625 11.25 3.76625 10.6088C3.125 9.96875 3.125 8.9375 3.125 6.875C3.125 4.8125 3.125 3.78125 3.76625 3.14125ZM7.5 17.5C8.3575 17.5 9.04875 18.19 10.4288 19.5713C11.81 20.95 12.5 21.6425 12.5 22.5C12.5 23.3575 11.81 24.0488 10.4288 25.4288C9.05 26.81 8.3575 27.5 7.5 27.5C6.6425 27.5 5.95125 26.81 4.57125 25.4288C3.19 24.05 2.5 23.3575 2.5 22.5C2.5 21.6425 3.19 20.9513 4.57125 19.5713C5.95 18.19 6.6425 17.5 7.5 17.5ZM7.5 11.25L7.5 17.5M12.5 22.5L18.75 22.5M19.3913 18.7663C20.0313 18.125 21.0625 18.125 23.125 18.125C25.1875 18.125 26.2188 18.125 26.8588 18.7663C27.5 19.4063 27.5 20.4375 27.5 22.5C27.5 24.5625 27.5 25.5938 26.8588 26.2338C26.2188 26.875 25.1875 26.875 23.125 26.875C21.0625 26.875 20.0313 26.875 19.3913 26.2338C18.75 25.5938 18.75 24.5625 18.75 22.5C18.75 20.4375 18.75 19.4063 19.3913 18.7663Z" fill-rule="nonzero" stroke="rgb(156.509,255,58.0183)" stroke-linecap="round" stroke-linejoin="round" stroke-width="1.500000" />
</svg>
